<svg version="1.2" xmlns="http://www.w3.org/2000/svg" viewBox="0 0 327 330" width="327" height="330">
	<title>Asset 2-svg</title>
	<style>
		.s0 { fill: #d78826 } 
	</style>
	<g id="Vector_Graphics">
		<g id="Layer">
			<path id="Layer" class="s0" d="m80.9 79.4c-2.3-8.9-3.6-18.4-3.6-27.9 0-11.1 1.6-19.7 3.6-26.1 4-12.5 9.7-17.2 9.7-17.2 4.2-6.6 24.2-14.1 36.7-0.8 12.5 13.3 31.6 42.5 30.8 69.1-0.8 26.7-22.5 63.3-44.2 51.7-15.3-8.3-27.3-27-33-48.8z"/>
			<path id="Layer" class="s0" d="m178.1 62.4c4.2-29.2 34.1-48.3 34.1-48.3 18.3-10.9 30.7-7 38.5 2.9 9.6 12.2 12.2 33.6 9.9 47.9-1.4 8.1-4.9 18.9-9.9 29.6-10.8 23-28.6 45.5-46.8 40.3-26.6-7.4-30-43.3-25.8-72.4z"/>
			<path id="Layer" class="s0" d="m278 124.8c30.9-20 48.4 5 48.4 37.5 0 32.5-30.9 67.5-55 67.5-8.8 0-15.7-2.7-20.7-7.5-8.6-8.5-11.7-23.5-10.1-42.5 0.8-9.6 4.9-18.6 10.1-26.6 11.2-16.8 27.4-28.4 27.4-28.4z"/>
			<path id="Layer" class="s0" d="m56.5 207.3c-23.4 4.2-42.5-18.3-52.5-43.3-10-25-3.4-82.5 45-60.8 0 0 23.5 17.5 31.9 45.2 1 3.1 1.7 6.4 2.2 9.8 2.4 16 1.7 27-2.2 34.6-4.3 8.2-12.3 12.4-24.4 14.5z"/>
			<path id="Layer" class="s0" d="m250.7 255.9c3.3 6.8 6.1 13.7 8.2 20.6 5.4 17.5 1.3 30.1-8.2 37.6-12.6 9.8-34.8 10.5-57.6 1.5-40-15.8-77.5 8.3-101.6 13.3-3.5 0.7-7.1 1-10.6 0.7-21-1.5-40-20.7-23.6-60.6 5.3-12.9 13.9-25.7 23.6-37.6 25.6-31.2 58.9-55.7 58.9-55.7 12.5-15 39.1-10 54.1 3.3 12.5 11.1 40.6 43 56.8 76.9z"/>
		</g>
	</g>
</svg>